<svg width="375" height="183" viewBox="0 0 375 183" fill="none" xmlns="http://www.w3.org/2000/svg">
<mask id="mask0_1651_456" style="mask-type:alpha" maskUnits="userSpaceOnUse" x="0" y="0" width="375" height="183">
<path d="M0 0H375V167C375 175.837 367.837 183 359 183H16C7.16345 183 0 175.837 0 167V0Z" fill="url(#paint0_linear_1651_456)"/>
</mask>
<g mask="url(#mask0_1651_456)">
<path d="M0 0H375V167C375 175.837 367.837 183 359 183H16C7.16345 183 0 175.837 0 167V0Z" fill="url(#paint1_linear_1651_456)"/>
<g style="mix-blend-mode:multiply" opacity="0.2">
<circle cx="56" cy="60" r="113" fill="url(#paint2_linear_1651_456)"/>
</g>
<g style="mix-blend-mode:multiply" opacity="0.2">
<circle cx="56" cy="60" r="52" fill="url(#paint3_linear_1651_456)"/>
</g>
</g>
<defs>
<linearGradient id="paint0_linear_1651_456" x1="-45.4102" y1="199.013" x2="464.312" y2="114.243" gradientUnits="userSpaceOnUse">
<stop stop-color="#10C790"/>
<stop offset="1" stop-color="#07EDA8"/>
</linearGradient>
<linearGradient id="paint1_linear_1651_456" x1="-45.4102" y1="199.013" x2="464.312" y2="114.243" gradientUnits="userSpaceOnUse">
<stop stop-color="#10C790"/>
<stop offset="1" stop-color="#07EDA8"/>
</linearGradient>
<linearGradient id="paint2_linear_1651_456" x1="-84.3672" y1="192.775" x2="229.256" y2="167.322" gradientUnits="userSpaceOnUse">
<stop stop-color="#10C790"/>
<stop offset="1" stop-color="#07EDA8"/>
</linearGradient>
<linearGradient id="paint3_linear_1651_456" x1="-8.59375" y1="121.1" x2="135.728" y2="109.387" gradientUnits="userSpaceOnUse">
<stop stop-color="#10C790"/>
<stop offset="1" stop-color="#07EDA8"/>
</linearGradient>
</defs>
</svg>
